<?xml version="1.0" encoding="utf-8"?>
<!-- Generator: Adobe Illustrator 27.4.1, SVG Export Plug-In . SVG Version: 6.00 Build 0)  -->
<svg version="1.1" id="Layer_1" xmlns="http://www.w3.org/2000/svg" xmlns:xlink="http://www.w3.org/1999/xlink" x="0px" y="0px"
	 viewBox="0 0 449.37 102.5" style="enable-background:new 0 0 449.37 102.5;" xml:space="preserve">
<style type="text/css">
	.st0{clip-path:url(#SVGID_00000041290683858364834350000018070503079550345149_);}
	.st1{fill:#0071CE;}
	.st2{fill:#8DC1DE;}
	.st3{fill:#002B49;}
</style>
<g>
	<defs>
		<rect id="SVGID_1_" x="4.22" y="6.82" width="460.89" height="95.69"/>
	</defs>
	<clipPath id="SVGID_00000126308680200263528730000004621214844920361637_">
		<use xlink:href="#SVGID_1_"  style="overflow:visible;"/>
	</clipPath>
	<g style="clip-path:url(#SVGID_00000126308680200263528730000004621214844920361637_);">
		<path class="st1" d="M43.16,37.95h18.62l-5.74,33.06H37.42L43.16,37.95z"/>
		<path class="st2" d="M65.34,16.38h18.62l-9.31,54.63H56.03L65.34,16.38z"/>
		<path class="st3" d="M24.69,37.95h18.62L34,92.58H15.38L24.69,37.95z"/>
		<path class="st3" d="M97.85,38.58h16.04c2.34,0,4.36,0.25,6.07,0.76c1.71,0.51,3.13,1.24,4.26,2.2c1.13,0.95,1.97,2.11,2.51,3.48
			c0.56,1.38,0.84,2.93,0.84,4.65c0,1.62-0.27,3.12-0.82,4.5c-0.55,1.38-1.38,2.57-2.51,3.58c-1.12,1-2.53,1.78-4.24,2.36
			c-1.71,0.56-3.74,0.84-6.07,0.84l-9.91-0.02v8.08h-6.17V38.58z M114.05,55.6c1.17,0,2.19-0.14,3.06-0.41
			c0.88-0.29,1.62-0.68,2.2-1.19c0.6-0.52,1.04-1.14,1.32-1.87c0.3-0.74,0.45-1.56,0.45-2.45c0-1.8-0.59-3.21-1.77-4.2
			c-1.17-1.01-2.92-1.52-5.26-1.52h-10.03V55.6H114.05z M136.53,53.71c0-2.3,0.42-4.4,1.27-6.31c0.84-1.91,2.02-3.54,3.54-4.91
			c1.53-1.38,3.36-2.44,5.49-3.19c2.14-0.75,4.51-1.13,7.11-1.13c2.58,0,4.94,0.38,7.09,1.13c2.14,0.75,3.97,1.82,5.49,3.19
			c1.53,1.36,2.72,3,3.56,4.91c0.84,1.91,1.26,4.01,1.26,6.31c0,2.31-0.42,4.43-1.26,6.37c-0.84,1.92-2.03,3.58-3.56,4.96
			c-1.52,1.39-3.35,2.47-5.49,3.25c-2.14,0.77-4.5,1.15-7.09,1.15c-2.6,0-4.96-0.38-7.11-1.15c-2.13-0.78-3.96-1.86-5.49-3.25
			c-1.52-1.39-2.7-3.04-3.54-4.96C136.95,58.14,136.53,56.02,136.53,53.71z M142.7,53.71c0,1.57,0.28,2.98,0.84,4.24
			c0.57,1.26,1.36,2.34,2.36,3.23c1.01,0.88,2.2,1.56,3.56,2.04c1.38,0.48,2.87,0.72,4.48,0.72s3.1-0.24,4.46-0.72
			c1.38-0.48,2.56-1.16,3.56-2.04c1-0.9,1.78-1.97,2.36-3.23c0.57-1.26,0.86-2.67,0.86-4.24s-0.29-2.98-0.86-4.22
			c-0.57-1.25-1.36-2.3-2.36-3.15c-1-0.87-2.19-1.53-3.56-1.99c-1.36-0.45-2.85-0.68-4.46-0.68s-3.1,0.23-4.48,0.68
			c-1.36,0.45-2.55,1.12-3.56,1.99c-1,0.86-1.78,1.91-2.36,3.15C142.98,50.73,142.7,52.14,142.7,53.71z M182.17,38.58h6.17V63.6
			h17.7v5.41h-23.87V38.58z M225.35,61.48l-13.3-22.89h6.99l9.36,17.31l9.25-17.31h6.99l-13.12,22.85v7.57h-6.17V61.48z
			 M253.3,38.58h11.15c3.26,0,6.09,0.35,8.49,1.05c2.4,0.7,4.39,1.71,5.96,3.02c1.58,1.3,2.76,2.88,3.52,4.75
			c0.78,1.86,1.17,3.95,1.17,6.27c0,2.21-0.38,4.25-1.15,6.13c-0.77,1.87-1.93,3.49-3.5,4.87c-1.57,1.36-3.56,2.43-5.96,3.21
			c-2.4,0.77-5.23,1.15-8.49,1.15l-11.19-0.02V38.58z M265.97,63.68c1.84,0,3.46-0.23,4.85-0.7c1.39-0.48,2.54-1.16,3.47-2.02
			c0.93-0.87,1.63-1.92,2.1-3.15c0.47-1.23,0.7-2.61,0.7-4.13c0-1.49-0.23-2.84-0.7-4.03c-0.47-1.21-1.17-2.23-2.1-3.06
			c-0.92-0.84-2.08-1.49-3.47-1.95c-1.39-0.45-3-0.68-4.85-0.68h-6.5v19.72H265.97z M293.77,38.58h25.91V44h-19.74v6.07h17.48v5.08
			h-17.48v8.47h20.15v5.39h-26.32V38.58z M330.93,38.58h6.17V63.6h17.7v5.41h-23.87V38.58z M373.95,44h-11.23v-5.41h28.64V44h-11.23
			v25.02h-6.17V44z M412.32,38.58h6.54l14.72,30.43h-6.48l-2.43-5.12h-17.77l-2.36,5.12h-6.5L412.32,38.58z M422.22,58.81
			l-6.58-13.82l-6.4,13.82H422.22z"/>
	</g>
</g>
</svg>
