<?xml version="1.0" encoding="utf-8"?>
<!-- Generator: Adobe Illustrator 27.4.1, SVG Export Plug-In . SVG Version: 6.00 Build 0)  -->
<svg version="1.1" id="Layer_1" xmlns="http://www.w3.org/2000/svg" xmlns:xlink="http://www.w3.org/1999/xlink" x="0px" y="0px"
	 viewBox="0 0 449.37 102.5" style="enable-background:new 0 0 449.37 102.5;" xml:space="preserve">
<style type="text/css">
	.st0{clip-path:url(#SVGID_00000021077612553534416860000001412293617674255033_);}
	.st1{fill:#8DC1DE;}
	.st2{fill:#FFFFFF;}
	.st3{fill:#0071CE;}
</style>
<g>
	<defs>
		<rect id="SVGID_1_" x="6.33" y="10.96" width="402.45" height="83.55"/>
	</defs>
	<clipPath id="SVGID_00000108288571752373929130000004671654482418293392_">
		<use xlink:href="#SVGID_1_"  style="overflow:visible;"/>
	</clipPath>
	<g style="clip-path:url(#SVGID_00000108288571752373929130000004671654482418293392_);">
		<path class="st1" d="M40.33,38.14h16.26l-5.01,28.87H35.32L40.33,38.14z"/>
		<path class="st2" d="M59.7,19.31h16.26l-8.13,47.7H51.57L59.7,19.31z"/>
		<path class="st3" d="M24.21,38.14h16.26l-8.13,47.7H16.08L24.21,38.14z"/>
		<path class="st2" d="M88.08,38.7h14.01c2.04,0,3.81,0.22,5.3,0.66c1.5,0.44,2.74,1.08,3.72,1.92c0.99,0.83,1.72,1.84,2.19,3.04
			c0.49,1.2,0.73,2.56,0.73,4.06c0,1.42-0.24,2.73-0.71,3.93c-0.48,1.2-1.21,2.24-2.19,3.13c-0.97,0.87-2.21,1.56-3.71,2.06
			c-1.5,0.49-3.26,0.73-5.3,0.73l-8.65-0.02v7.05h-5.39V38.7z M102.23,53.55c1.02,0,1.91-0.12,2.67-0.36
			c0.77-0.25,1.41-0.59,1.92-1.04c0.52-0.45,0.91-1,1.16-1.63c0.26-0.65,0.39-1.36,0.39-2.14c0-1.58-0.52-2.8-1.55-3.67
			c-1.02-0.88-2.55-1.33-4.59-1.33h-8.75v10.17H102.23z M121.86,51.9c0-2.01,0.37-3.84,1.1-5.51c0.74-1.67,1.77-3.09,3.09-4.28
			c1.34-1.2,2.94-2.13,4.79-2.79c1.87-0.66,3.94-0.99,6.2-0.99c2.26,0,4.32,0.33,6.19,0.99c1.87,0.66,3.47,1.59,4.79,2.79
			c1.34,1.19,2.37,2.62,3.11,4.28s1.1,3.5,1.1,5.51c0,2.02-0.37,3.87-1.1,5.56c-0.74,1.68-1.77,3.12-3.11,4.33
			c-1.33,1.21-2.92,2.16-4.79,2.84c-1.87,0.67-3.93,1-6.19,1c-2.27,0-4.33-0.33-6.2-1c-1.86-0.68-3.46-1.63-4.79-2.84
			c-1.33-1.21-2.36-2.66-3.09-4.33C122.23,55.77,121.86,53.92,121.86,51.9z M127.25,51.9c0,1.37,0.24,2.61,0.73,3.71
			c0.5,1.1,1.18,2.04,2.06,2.82c0.88,0.77,1.92,1.37,3.11,1.78c1.2,0.42,2.5,0.63,3.91,0.63c1.41,0,2.7-0.21,3.89-0.63
			c1.2-0.42,2.24-1.01,3.11-1.78c0.87-0.78,1.56-1.72,2.06-2.82c0.5-1.1,0.75-2.33,0.75-3.71c0-1.37-0.25-2.6-0.75-3.69
			c-0.5-1.09-1.18-2.01-2.06-2.75c-0.87-0.76-1.91-1.34-3.11-1.73c-1.19-0.4-2.49-0.6-3.89-0.6c-1.41,0-2.71,0.2-3.91,0.6
			c-1.19,0.4-2.23,0.97-3.11,1.73c-0.87,0.75-1.56,1.67-2.06,2.75C127.49,49.3,127.25,50.53,127.25,51.9z M161.72,38.7h5.39v21.84
			h15.45v4.73h-20.84V38.7z M199.42,58.69L187.81,38.7h6.1l8.18,15.11l8.08-15.11h6.1L204.8,58.65v6.61h-5.39V58.69z M223.82,38.7
			h9.74c2.85,0,5.32,0.31,7.41,0.92c2.1,0.61,3.83,1.49,5.2,2.63c1.38,1.13,2.41,2.52,3.08,4.15c0.68,1.62,1.02,3.45,1.02,5.47
			c0,1.93-0.33,3.71-1,5.35c-0.67,1.63-1.69,3.05-3.06,4.25c-1.37,1.19-3.11,2.12-5.2,2.8c-2.1,0.67-4.57,1-7.41,1l-9.77-0.02V38.7z
			 M234.89,60.61c1.61,0,3.02-0.2,4.23-0.61c1.21-0.42,2.22-1.01,3.03-1.77c0.82-0.76,1.43-1.68,1.84-2.75
			c0.41-1.08,0.61-2.28,0.61-3.6c0-1.3-0.2-2.48-0.61-3.52c-0.41-1.05-1.02-1.94-1.84-2.67c-0.8-0.74-1.81-1.3-3.03-1.7
			s-2.62-0.59-4.23-0.59h-5.68v17.22H234.89z M259.16,38.7h22.62v4.73h-17.24v5.3h15.27v4.44h-15.27v7.39h17.59v4.71h-22.98V38.7z
			 M291.61,38.7H297v21.84h15.45v4.73h-20.84V38.7z M329.17,43.42h-9.81V38.7h25v4.73h-9.81v21.84h-5.39V43.42z M362.67,38.7h5.71
			l12.85,26.57h-5.66l-2.13-4.47h-15.52l-2.06,4.47h-5.68L362.67,38.7z M371.33,56.36l-5.75-12.07l-5.59,12.07H371.33z"/>
	</g>
</g>
</svg>
